<?xml version="1.0" encoding="UTF-8"?>
<svg width="256px" height="256px" viewBox="0 0 256 256" version="1.1" xmlns="http://www.w3.org/2000/svg" xmlns:xlink="http://www.w3.org/1999/xlink">
    <title>icon-256x256</title>
    <g id="icon-256x256" stroke="none" stroke-width="1" fill="none" fill-rule="evenodd">
        <g id="logo-(1)" transform="translate(0.000000, -0.001260)" fill="#3D50E0" fill-rule="nonzero">
            <g id="path30">
                <path d="M130.116622,0.000128 C199.83417,0.0128 256,1.28 256,128 C256,256 198.693776,256 127.999865,256 C57.3059545,256 0,256 0,128 C0,0 57.3059545,0 127.999865,0 Z" id="path-3"></path>
            </g>
        </g>
        <g id="Group-3" transform="translate(47.000000, 64.000000)" fill="#FFFFFF" fill-rule="nonzero">
            <path d="M14.750001,90 L14.750001,86.1 L5.57000103,86.1 L5.57000103,81.18 L13.880001,81.18 L13.880001,77.49 L5.57000103,77.49 L5.57000103,72.63 L14.750001,72.63 L14.750001,68.73 L1.43000103,68.73 L1.43000103,90 L14.750001,90 Z M21.979311,90 L21.979311,81.36 C21.979311,79.74 22.999311,78.45 24.739311,78.45 C26.539311,78.45 27.349311,79.65 27.349311,81.24 L27.349311,90 L31.309311,90 L31.309311,81.36 C31.309311,79.77 32.329311,78.45 34.039311,78.45 C35.869311,78.45 36.649311,79.65 36.649311,81.24 L36.649311,90 L40.519311,90 L40.519311,80.43 C40.519311,76.47 37.909311,74.82 35.179311,74.82 C33.229311,74.82 31.669311,75.48 30.499311,77.28 C29.749311,75.69 28.129311,74.82 26.119311,74.82 C24.499311,74.82 22.609311,75.6 21.799311,77.04 L21.799311,75.24 L17.989311,75.24 L17.989311,90 L21.979311,90 Z M52.398621,90.36 C56.598621,90.36 59.358621,87.03 59.358621,82.56 C59.358621,78.18 56.868621,74.85 52.548621,74.85 C50.358621,74.85 48.738621,75.81 48.078621,76.86 L48.078621,68.28 L44.148621,68.28 L44.148621,90 L48.018621,90 L48.018621,88.2 C48.798621,89.46 50.358621,90.36 52.398621,90.36 Z M51.708621,86.79 C49.698621,86.79 48.018621,85.26 48.018621,82.59 C48.018621,79.89 49.698621,78.42 51.708621,78.42 C53.748621,78.42 55.368621,79.89 55.368621,82.59 C55.368621,85.29 53.748621,86.79 51.708621,86.79 Z M68.597931,90.45 C72.227931,90.45 74.567931,88.32 75.317931,85.77 L71.987931,84.78 C71.507931,86.1 70.487931,87.03 68.627931,87.03 C66.647931,87.03 64.997931,85.62 64.907931,83.67 L75.467931,83.67 C75.467931,83.61 75.527931,83.01 75.527931,82.44 C75.527931,77.7 72.797931,74.79 68.237931,74.79 C64.457931,74.79 60.977931,77.85 60.977931,82.56 C60.977931,87.54 64.547931,90.45 68.597931,90.45 Z M71.597931,80.94 L64.997931,80.94 C65.087931,79.59 66.227931,78.03 68.297931,78.03 C70.577931,78.03 71.537931,79.47 71.597931,80.94 Z M84.347241,90.36 C86.327241,90.36 87.827241,89.46 88.487241,88.29 C88.487241,88.98 88.577241,89.7 88.637241,90 L92.447241,90 C92.387241,89.4 92.327241,88.32 92.327241,87.33 L92.327241,68.28 L88.397241,68.28 L88.397241,76.71 C87.977241,75.93 86.777241,74.88 84.227241,74.88 C80.057241,74.88 77.147241,78.27 77.147241,82.59 C77.147241,87.06 80.147241,90.36 84.347241,90.36 Z M84.827241,86.79 C82.727241,86.79 81.167241,85.23 81.167241,82.59 C81.167241,79.95 82.787241,78.45 84.827241,78.45 C86.867241,78.45 88.457241,79.92 88.457241,82.56 C88.457241,85.23 86.867241,86.79 84.827241,86.79 Z M105.765861,90 L107.535861,85.14 L116.175861,85.14 L117.945861,90 L122.445861,90 L114.345861,68.73 L109.545861,68.73 L101.385861,90 L105.765861,90 Z M114.795861,81.36 L108.915861,81.36 L111.855861,73.32 L114.795861,81.36 Z M128.385171,90 L128.385171,81.51 C128.385171,79.8 129.405171,78.45 131.145171,78.45 C133.065171,78.45 133.875171,79.74 133.875171,81.39 L133.875171,90 L137.865171,90 L137.865171,80.7 C137.865171,77.46 136.185171,74.85 132.525171,74.85 C130.935171,74.85 129.165171,75.54 128.265171,77.07 L128.265171,75.24 L124.395171,75.24 L124.395171,90 L128.385171,90 Z M146.324481,95.82 L155.594481,75.24 L151.334481,75.24 L147.704481,83.88 L143.774481,75.24 L139.304481,75.24 L145.574481,88.14 L142.094481,95.82 L146.324481,95.82 Z M9.02000103,124 C15.080001,124 19.550001,120.1 19.550001,113.38 C19.550001,106.66 15.110001,102.73 9.05000103,102.73 L1.43000103,102.73 L1.43000103,124 L9.02000103,124 Z M8.87000103,120.16 L5.57000103,120.16 L5.57000103,106.57 L8.90000103,106.57 C12.380001,106.57 15.260001,108.76 15.260001,113.38 C15.260001,118 12.350001,120.16 8.87000103,120.16 Z M29.149311,124.45 C33.559311,124.45 36.889311,121.15 36.889311,116.62 C36.889311,112.06 33.559311,108.79 29.149311,108.79 C24.739311,108.79 21.409311,112.06 21.409311,116.62 C21.409311,121.15 24.739311,124.45 29.149311,124.45 Z M29.149311,120.82 C27.199311,120.82 25.399311,119.38 25.399311,116.62 C25.399311,113.83 27.199311,112.42 29.149311,112.42 C31.099311,112.42 32.899311,113.83 32.899311,116.62 C32.899311,119.41 31.099311,120.82 29.149311,120.82 Z M46.278621,124.45 C50.208621,124.45 52.518621,121.93 53.178621,119.47 L49.668621,118.3 C49.338621,119.44 48.318621,120.79 46.278621,120.79 C44.238621,120.79 42.498621,119.29 42.498621,116.62 C42.498621,113.95 44.208621,112.48 46.248621,112.48 C48.228621,112.48 49.158621,113.74 49.518621,114.97 L53.088621,113.77 C52.458621,111.28 50.178621,108.79 46.158621,108.79 C41.868621,108.79 38.508621,112.06 38.508621,116.62 C38.508621,121.15 41.928621,124.45 46.278621,124.45 Z M60.917931,124.39 C62.477931,124.39 64.187931,123.79 64.997931,122.41 C64.997931,123.01 65.057931,123.7 65.117931,124 L68.927931,124 C68.867931,123.49 68.777931,122.47 68.777931,121.33 L68.777931,109.24 L64.787931,109.24 L64.787931,117.82 C64.787931,119.53 63.767931,120.73 61.997931,120.73 C60.137931,120.73 59.297931,119.41 59.297931,117.76 L59.297931,109.24 L55.307931,109.24 L55.307931,118.57 C55.307931,121.78 57.347931,124.39 60.917931,124.39 Z M76.607241,124 L76.607241,115.36 C76.607241,113.74 77.627241,112.45 79.367241,112.45 C81.167241,112.45 81.977241,113.65 81.977241,115.24 L81.977241,124 L85.937241,124 L85.937241,115.36 C85.937241,113.77 86.957241,112.45 88.667241,112.45 C90.497241,112.45 91.277241,113.65 91.277241,115.24 L91.277241,124 L95.147241,124 L95.147241,114.43 C95.147241,110.47 92.537241,108.82 89.807241,108.82 C87.857241,108.82 86.297241,109.48 85.127241,111.28 C84.377241,109.69 82.757241,108.82 80.747241,108.82 C79.127241,108.82 77.237241,109.6 76.427241,111.04 L76.427241,109.24 L72.617241,109.24 L72.617241,124 L76.607241,124 Z M105.286551,124.45 C108.916551,124.45 111.256551,122.32 112.006551,119.77 L108.676551,118.78 C108.196551,120.1 107.176551,121.03 105.316551,121.03 C103.336551,121.03 101.686551,119.62 101.596551,117.67 L112.156551,117.67 C112.156551,117.61 112.216551,117.01 112.216551,116.44 C112.216551,111.7 109.486551,108.79 104.926551,108.79 C101.146551,108.79 97.666551,111.85 97.666551,116.56 C97.666551,121.54 101.236551,124.45 105.286551,124.45 Z M108.286551,114.94 L101.686551,114.94 C101.776551,113.59 102.916551,112.03 104.986551,112.03 C107.266551,112.03 108.226551,113.47 108.286551,114.94 Z M118.935861,124 L118.935861,115.51 C118.935861,113.8 119.955861,112.45 121.695861,112.45 C123.615861,112.45 124.425861,113.74 124.425861,115.39 L124.425861,124 L128.415861,124 L128.415861,114.7 C128.415861,111.46 126.735861,108.85 123.075861,108.85 C121.485861,108.85 119.715861,109.54 118.815861,111.07 L118.815861,109.24 L114.945861,109.24 L114.945861,124 L118.935861,124 Z M137.685171,124.21 C138.855171,124.21 139.575171,124 139.935171,123.85 L139.935171,120.55 C139.725171,120.61 139.185171,120.67 138.705171,120.67 C137.565171,120.67 136.965171,120.25 136.965171,118.96 L136.965171,112.78 L139.935171,112.78 L139.935171,109.24 L136.965171,109.24 L136.965171,104.83 L133.365171,104.83 L133.365171,106.9 C133.365171,108.22 132.645171,109.24 131.085171,109.24 L130.335171,109.24 L130.335171,112.78 L133.005171,112.78 L133.005171,119.65 C133.005171,122.5 134.805171,124.21 137.685171,124.21 Z" id="EmbedAnyDocument"></path>
            <g id="ead-logo-v2">
                <g id="EAD-logo-op" transform="translate(13.000000, 0.000000)">
                    <path d="M19.8466028,0 C20.435453,0 20.9987678,0.238736222 21.4061063,0.660927127 L21.4061063,0.660927127 L29,8.53170748 L29,31.8558558 C29,32.4312444 28.7691097,32.97323 28.3674752,33.3719947 C27.9658408,33.7707595 27.4199548,34 26.8404255,34 L26.8404255,34 L2.15957447,34 C1.58004506,34 1.03415904,33.7707594 0.632524573,33.3719945 C0.230890266,32.9732298 0,32.4312443 0,31.8558558 L0,31.8558558 L0,2.14414414 C0,1.56875558 0.230890288,1.02677002 0.632524732,0.628005256 C1.03415916,0.22924056 1.58004512,0 2.15957447,0 L2.15957447,0 L19.8466028,0 Z M18.2678641,2.96713654 L18.2418864,2.99368176 C18.0183687,3.22878707 17.893617,3.54159016 17.893617,3.8669355 L17.893617,9.76369655 C17.893617,10.4614147 18.4557803,11.027027 19.1492439,11.027027 L25.2762881,11.027027 C25.9697517,11.027027 26.5319149,10.4614147 26.5319149,9.76369655 C26.5319149,9.41890858 26.3918533,9.08910066 26.1442173,8.85077211 L20.0171733,2.95401186 C19.5250024,2.48033898 18.7495238,2.48901263 18.2678641,2.96713654 Z" id="Combined-Shape"></path>
                </g>
                <path d="M8.06658754,4.35009784 C8.87659723,3.77020738 10.0257218,3.92690542 10.633229,4.70009269 C11.2173706,5.44354199 11.0880619,6.48626917 10.3571553,7.08089968 L10.266566,7.15005664 L4.88884094,10.9996061 L10.266566,14.8499434 C11.0454214,15.4075303 11.2271532,16.443109 10.6999086,17.2093047 L10.633229,17.2999073 C10.0490874,18.0433566 8.96419022,18.216827 8.16150504,17.7135505 L8.06658754,17.6499022 L0.73332614,12.3999794 C-0.211849774,11.7233227 -0.243355638,10.3925645 0.638808549,9.67230102 L0.73332614,9.6000206 L8.06658754,4.35009784 Z" id="Line"></path>
                <path d="M52.0665875,16.3500978 C52.8765972,15.7702074 54.0257218,15.9269054 54.633229,16.7000927 C55.2173706,17.443542 55.0880619,18.4862692 54.3571553,19.0808997 L54.266566,19.1500566 L48.8888409,22.9996061 L54.266566,26.8499434 C55.0454214,27.4075303 55.2271532,28.443109 54.6999086,29.2093047 L54.633229,29.2999073 C54.0490874,30.0433566 52.9641902,30.216827 52.161505,29.7135505 L52.0665875,29.6499022 L44.7333261,24.3999794 C43.7881502,23.7233227 43.7566444,22.3925645 44.6388085,21.672301 L44.7333261,21.6000206 L52.0665875,16.3500978 Z" id="Line" transform="translate(49.500000, 23.000000) scale(-1, 1) translate(-49.500000, -23.000000) "></path>
            </g>
        </g>
    </g>
</svg>