<?xml version="1.0" encoding="UTF-8"?>
<svg width="38px" height="25px" viewBox="0 0 38 25" version="1.1" xmlns="http://www.w3.org/2000/svg" xmlns:xlink="http://www.w3.org/1999/xlink">
    <!-- Generator: Sketch 64 (93537) - https://sketch.com -->
    <title>EAD-logo-op</title>
    <desc>Created with Sketch.</desc>
    <g id="Page-1" stroke="none" stroke-width="1" fill="none" fill-rule="evenodd">
        <g id="1200-Grid" transform="translate(-801.000000, -803.000000)" fill="#41464B">
            <g id="EAD-logo-op" transform="translate(802.000000, 804.000000)">
                <g transform="translate(-0.880734, -0.774038)" id="Combined-Shape">
                    <path d="M22.6415488,0 C23.0618102,0 23.4638469,0.172368092 23.7545637,0.47719088 L23.7545637,0.47719088 L29.1743119,6.15991211 L29.1743119,23 C29.1743119,23.4154318 29.009526,23.8067466 28.7228802,24.0946557 C28.4362344,24.3825647 28.0466366,24.5480769 27.6330275,24.5480769 L27.6330275,24.5480769 L10.0183486,24.5480769 C9.60473953,24.5480769 9.21514166,24.3825647 8.92849587,24.0946556 C8.64185019,23.8067465 8.47706422,23.4154318 8.47706422,23 L8.47706422,23 L8.47706422,1.54807692 C8.47706422,1.13264508 8.6418502,0.74133028 8.92849598,0.453421218 C9.21514175,0.165512203 9.60473957,0 10.0183486,0 L10.0183486,0 Z M21.1920459,1.658 L10.1284404,1.65865385 L10.1284404,22.8894231 L27.5229358,22.8894231 L27.5220459,7.799 L22.3486239,7.79912861 C21.7527644,7.79912861 21.2622034,7.34630481 21.1994436,6.76458094 L21.1926606,6.63807091 L21.1920459,1.658 Z M31.8727492,11.058578 L31.8955957,11.0765047 L37.3376112,15.5003376 C37.7383687,15.8261147 37.7457901,16.4346478 37.3598755,16.7708973 L37.3376112,16.7896358 L31.8955957,21.2134686 C31.541128,21.5016166 31.0212099,21.4465875 30.7343262,21.0905576 C30.4535464,20.7421028 30.5000535,20.2344648 30.8344797,19.9428768 L30.8566979,19.9241704 L35.5056881,16.1448942 L30.8566979,12.365803 C30.5097721,12.0837858 30.4499096,11.5775613 30.7164781,11.2223629 L30.7343262,11.1994157 C31.015106,10.850961 31.5191093,10.7908347 31.8727492,11.058578 Z M6.96457,4.12249265 C7.24534979,4.47094742 7.19884274,4.97858543 6.86441651,5.27017344 L6.84219831,5.28887988 L2.19313761,9.06797115 L6.84219831,12.8472473 C7.18912416,13.1292645 7.24898664,13.635489 6.98241811,13.9906874 L6.96457,14.0136345 C6.68379021,14.3620893 6.17978693,14.4222156 5.826147,14.1544723 L5.80330054,14.1365455 L0.361285061,9.7127127 C-0.0394723973,9.3869356 -0.0468938309,8.77840248 0.339020759,8.44215294 L0.361285062,8.42341447 L5.80330054,3.99958166 C6.15776826,3.71143365 6.6776863,3.76646277 6.96457,4.12249265 Z M22.8440367,2.38315385 L22.8440367,6.14044712 L26.7546055,6.14044712 L22.8440367,2.38315385 Z" fill-rule="nonzero"></path>
                </g>
            </g>
        </g>
    </g>
</svg>