<?xml version="1.0" encoding="UTF-8"?>
<svg width="107px" height="107px" viewBox="0 0 107 107" version="1.1" xmlns="http://www.w3.org/2000/svg" xmlns:xlink="http://www.w3.org/1999/xlink">
    <title>Artboard</title>
    <g id="Artboard" stroke="none" stroke-width="1" fill="none" fill-rule="evenodd">
        <g id="Group" transform="translate(12.000000, 27.000000)" fill-rule="nonzero">
            <g id="onedrive">
                <path d="M50.5804254,36.3103429 L67.9655137,19.7322181 C64.3542809,5.69144079 50.0118059,-2.77181963 35.9305818,0.829061226 C29.5894193,2.4506154 24.0818068,7.30132981 20.4827575,12.7539362 C20.7518583,12.7471689 50.5804254,36.3103429 50.5804254,36.3103429 Z" id="Path" fill="#0364B8"></path>
                <path d="M31.8250142,15.1924574 L31.824204,15.1952757 C28.5324484,13.1691773 24.7361451,12.0982328 20.8640825,12.1034287 C20.77463,12.1034287 20.686717,12.1091033 20.5974265,12.1101501 C9.08009048,12.2519496 -0.140973459,21.6455023 0.00163200833,33.0912426 C0.0533264899,37.2431256 1.35873369,41.2838076 3.74859065,44.6896528 L29.5575872,41.4773022 L49.344825,25.6212834 L31.8250142,15.1924574 Z" id="Path" fill="#0078D4"></path>
                <path d="M66.6720798,19.5516898 C64.3384067,19.5493655 62.0290333,20.0416775 59.8869761,20.9981619 L49.344825,25.5780317 L60.9662273,40.4045131 L81.742406,45.6206622 C86.2259088,37.0240727 83.1130084,26.3012892 74.789577,21.6706333 C72.6388473,20.474077 70.265002,19.7668751 67.8276664,19.5964334 C67.4451708,19.5699841 67.0608753,19.5516898 66.6720798,19.5516898 Z" id="Path" fill="#1490DF"></path>
                <path d="M3.74859065,44.6896528 C7.71864484,50.2536668 14.2079865,54.0035347 21.1608436,54.0000518 L67.6574876,54.0000518 C74.009079,54.0017646 78.9177677,50.6042472 81.9310302,45.1540094 L49.344825,25.6212834 L3.74859065,44.6896528 Z" id="Path" fill="#28A8EA"></path>
            </g>
        </g>
    </g>
</svg>