<?xml version="1.0" encoding="UTF-8"?>
<svg width="50px" height="50px" viewBox="0 0 50 50" version="1.1" xmlns="http://www.w3.org/2000/svg" xmlns:xlink="http://www.w3.org/1999/xlink">
    <title>Artboard</title>
    <g id="Artboard" stroke="none" stroke-width="1" fill="none" fill-rule="evenodd">
        <g id="box_inc_logo" transform="translate(4.000000, 14.000000)" fill="#0071F7" fill-rule="nonzero">
            <path d="M42.6208786,20.4254005 C43.1576655,21.1700766 43.0503081,22.1275173 42.4061638,22.6594287 C41.6546622,23.1913402 40.5810884,23.0849579 40.0443015,22.4466641 L36.2867933,17.6594609 L32.6366425,22.3402818 C32.0998556,23.0849579 31.0262819,23.0849579 30.2747802,22.5530464 C29.5232786,22.021135 29.4159212,21.0636943 29.9527081,20.3190183 L34.2470032,14.7871389 L29.9527081,9.25525962 C29.4159212,8.51058356 29.630636,7.44676062 30.2747802,6.91484914 C31.0262819,6.38293767 32.0998556,6.59570226 32.6366425,7.23399603 L36.2867933,12.0211993 L40.0443015,7.44676062 C40.5810884,6.70208455 41.5473048,6.59570226 42.4061638,7.12761373 C43.1576655,7.65952521 43.1576655,8.72334815 42.6208786,9.46802421 L38.4339409,14.8935212 L42.6208786,20.4254005 L42.6208786,20.4254005 Z M23.081836,19.7871068 C20.2905442,19.7871068 18.0360393,17.6594609 18.0360393,14.8935212 C18.0360393,12.2339639 20.2905442,9.99993569 23.081836,9.99993569 C25.8731278,9.99993569 28.1276327,12.2339639 28.1276327,14.8935212 C28.0202753,17.6594609 25.7657704,19.7871068 23.081836,19.7871068 Z M8.26651801,19.7871068 C5.47522621,19.7871068 3.2207213,17.6594609 3.2207213,14.8935212 C3.2207213,12.2339639 5.47522621,9.99993569 8.26651801,9.99993569 C11.0578098,9.99993569 13.3123147,12.2339639 13.3123147,14.8935212 C13.3123147,17.6594609 11.0578098,19.7871068 8.26651801,19.7871068 Z M23.081836,6.80846685 C19.9684721,6.80846685 17.1771803,8.51058356 15.7815344,11.0637586 C14.3858885,8.51058356 11.5945967,6.80846685 8.37387539,6.80846685 C6.4414426,6.80846685 4.72372458,7.44676062 3.32807868,8.40420127 L3.32807868,1.59573442 C3.32807868,0.744676062 2.57657704,0 1.71771803,0 C0.751501637,0 0,0.744676062 0,1.59573442 L0,14.9999035 C0.107357377,19.4679599 3.75750819,22.9785756 8.26651801,22.9785756 C11.4872393,22.9785756 14.2785311,21.1700766 15.674177,18.6169015 C17.0698229,21.1700766 19.8611147,22.9785756 22.9744786,22.9785756 C27.5908458,22.9785756 31.348354,19.3615776 31.348354,14.7871389 C31.4557114,10.4254649 27.6982032,6.80846685 23.081836,6.80846685 Z" id="Shape"></path>
        </g>
    </g>
</svg>