<?xml version="1.0" encoding="UTF-8"?>
<svg width="50px" height="50px" viewBox="0 0 50 50" version="1.1" xmlns="http://www.w3.org/2000/svg" xmlns:xlink="http://www.w3.org/1999/xlink">
    <title>Artboard</title>
    <g id="Artboard" stroke="none" stroke-width="1" fill="none" fill-rule="evenodd">
        <g id="Google_Drive_icon_(2020)" transform="translate(5.000000, 7.000000)" fill-rule="nonzero">
            <g id="Path">
                <path d="M3.02405498,30.8538462 L4.78808706,33.9230769 C5.15463918,34.5692308 5.68155785,35.0769231 6.30011455,35.4461538 L12.6002291,24.4615385 L0,24.4615385 C0,25.1769231 0.18327606,25.8923077 0.549828179,26.5384615 L3.02405498,30.8538462 Z" fill="#0066DA"></path>
                <path d="M20,11.5384615 L13.6998855,0.553846154 C13.0813288,0.923076923 12.5544101,1.43076923 12.187858,2.07692308 L0.549828179,22.3846154 C0.190017411,23.0168345 0.000479066637,23.7327973 0,24.4615385 L12.6002291,24.4615385 L20,11.5384615 Z" fill="#00AC47"></path>
                <path d="M33.6998855,35.4461538 C34.3184422,35.0769231 34.8453608,34.5692308 35.2119129,33.9230769 L35.9450172,32.6538462 L39.4501718,26.5384615 C39.8167239,25.8923077 40,25.1769231 40,24.4615385 L27.3988545,24.4615385 L30.0801833,29.7692308 L33.6998855,35.4461538 Z" fill="#EA4335"></path>
                <path d="M20,11.5384615 L26.3001145,0.553846154 C25.6815578,0.184615385 24.9713631,0 24.2382589,0 L15.7617411,0 C15.0286369,0 14.3184422,0.207692308 13.6998855,0.553846154 L20,11.5384615 Z" fill="#00832D"></path>
                <path d="M27.3997709,24.4615385 L12.6002291,24.4615385 L6.30011455,35.4461538 C6.91867125,35.8153846 7.62886598,36 8.36197022,36 L31.6380298,36 C32.371134,36 33.0813288,35.7923077 33.6998855,35.4461538 L27.3997709,24.4615385 Z" fill="#2684FC"></path>
                <path d="M33.6311569,12.2307692 L27.812142,2.07692308 C27.4455899,1.43076923 26.9186712,0.923076923 26.3001145,0.553846154 L20,11.5384615 L27.3997709,24.4615385 L39.9770905,24.4615385 C39.9770905,23.7461538 39.7938144,23.0307692 39.4272623,22.3846154 L33.6311569,12.2307692 Z" fill="#FFBA00"></path>
            </g>
        </g>
    </g>
</svg>