<?xml version="1.0" encoding="UTF-8"?>
<svg width="12px" height="12px" viewBox="0 0 12 12" version="1.1" xmlns="http://www.w3.org/2000/svg" xmlns:xlink="http://www.w3.org/1999/xlink">
    <!-- Generator: Sketch 64 (93537) - https://sketch.com -->
    <title>out</title>
    <desc>Created with Sketch.</desc>
    <g id="Page-1" stroke="none" stroke-width="1" fill="none" fill-rule="evenodd">
        <g id="1200-Grid" transform="translate(-849.000000, -884.000000)" fill="#000000" fill-rule="nonzero">
            <g id="out" transform="translate(849.000000, 884.000000)">
                <path d="M11.3322734,0 L7.6073132,0 C7.2391097,0 6.93958665,0.299561208 6.93958665,0.66772655 C6.93958665,1.03589189 7.2391097,1.3354531 7.6073132,1.3354531 L9.72026709,1.3354531 L6.1956248,4.86005723 C6.06944356,4.98616216 6,5.15381876 6,5.33223529 C6,5.51065183 6.06940541,5.67827027 6.19554849,5.80426073 C6.32169157,5.93051828 6.48931002,6 6.66772655,6 C6.84606677,6 7.01376153,5.93055644 7.13994277,5.8043752 L10.6645469,2.27973291 L10.6645469,4.3926868 C10.6645469,4.76085215 10.9641081,5.06041335 11.3322734,5.06041335 C11.7004388,5.06041335 12,4.76085215 12,4.3926868 L12,0.66772655 C12,0.299561208 11.7004388,0 11.3322734,0 Z" id="Path"></path>
                <path d="M8.70206847,10.7020685 L1.29793153,10.7020685 L1.29793153,3.29793153 L6.8665337,3.29793153 L8.16446523,2 L0.648965765,2 C0.290563605,2 0,2.29056361 0,2.64896576 L0,11.3510342 C0,11.7094364 0.290563605,12 0.648965765,12 L9.35103424,12 C9.70943639,12 10,11.7094364 10,11.3510342 L10,3.83553477 L8.70206847,5.1334663 L8.70206847,10.7020685 Z" id="Path"></path>
            </g>
        </g>
    </g>
</svg>